<?xml version="1.0" encoding="UTF-8" standalone="no"?>
<!DOCTYPE svg PUBLIC "-//W3C//DTD SVG 1.1//EN"
 "http://www.w3.org/Graphics/SVG/1.1/DTD/svg11.dtd">
<!-- Generated by graphviz version 2.38.0 (20140413.2041)
 -->
<!-- Title: controllers_diagram Pages: 1 -->
<svg width="658pt" height="631pt"
 viewBox="0.00 0.00 657.50 631.00" xmlns="http://www.w3.org/2000/svg" xmlns:xlink="http://www.w3.org/1999/xlink">
<g id="graph0" class="graph" transform="scale(1 1) rotate(0) translate(259.5 387.5)">
<title>controllers_diagram</title>
<polygon fill="none" stroke="none" points="-259.5,243.5 -259.5,-387.5 398,-387.5 398,243.5 -259.5,243.5"/>
<!-- _diagram_info -->
<g id="node1" class="node"><title>_diagram_info</title>
<text text-anchor="start" x="72" y="112.4" font-family="Times,serif" font-size="13.00">Controllers diagram</text>
<text text-anchor="start" x="72" y="126.4" font-family="Times,serif" font-size="13.00">Date: Aug 10 2016 &#45; 21:42</text>
<text text-anchor="start" x="72" y="140.4" font-family="Times,serif" font-size="13.00">Migration version: 20160811014216</text>
<text text-anchor="start" x="72" y="154.4" font-family="Times,serif" font-size="13.00">Generated by RailRoady 1.5.1</text>
<text text-anchor="start" x="72" y="168.4" font-family="Times,serif" font-size="13.00">http://railroady.prestonlee.com</text>
</g>
<!-- PostsController -->
<g id="node2" class="node"><title>PostsController</title>
<path fill="none" stroke="black" d="M-51.5,111.5C-51.5,111.5 25.5,111.5 25.5,111.5 31.5,111.5 37.5,105.5 37.5,99.5 37.5,99.5 37.5,-89.5 37.5,-89.5 37.5,-95.5 31.5,-101.5 25.5,-101.5 25.5,-101.5 -51.5,-101.5 -51.5,-101.5 -57.5,-101.5 -63.5,-95.5 -63.5,-89.5 -63.5,-89.5 -63.5,99.5 -63.5,99.5 -63.5,105.5 -57.5,111.5 -51.5,111.5"/>
<text text-anchor="middle" x="-13" y="-86.3" font-family="Times,serif" font-size="14.00">PostsController</text>
<polyline fill="none" stroke="black" points="-63.5,-78.5 37.5,-78.5 "/>
<text text-anchor="start" x="-55.5" y="-63.3" font-family="Times,serif" font-size="14.00">create</text>
<text text-anchor="start" x="-55.5" y="-48.3" font-family="Times,serif" font-size="14.00">destroy</text>
<text text-anchor="start" x="-55.5" y="-33.3" font-family="Times,serif" font-size="14.00">edit</text>
<text text-anchor="start" x="-55.5" y="-18.3" font-family="Times,serif" font-size="14.00">index</text>
<text text-anchor="start" x="-55.5" y="-3.3" font-family="Times,serif" font-size="14.00">new</text>
<text text-anchor="start" x="-55.5" y="11.7" font-family="Times,serif" font-size="14.00">show</text>
<text text-anchor="start" x="-55.5" y="26.7" font-family="Times,serif" font-size="14.00">update</text>
<polyline fill="none" stroke="black" points="-63.5,34.5 37.5,34.5 "/>
<polyline fill="none" stroke="black" points="-63.5,58.5 37.5,58.5 "/>
<text text-anchor="start" x="-55.5" y="73.7" font-family="Times,serif" font-size="14.00">_layout</text>
<text text-anchor="start" x="-55.5" y="88.7" font-family="Times,serif" font-size="14.00">post_params</text>
<text text-anchor="start" x="-55.5" y="103.7" font-family="Times,serif" font-size="14.00">set_post</text>
</g>
<!-- UsersController -->
<g id="node3" class="node"><title>UsersController</title>
<path fill="none" stroke="black" d="M-115.5,-288.5C-115.5,-288.5 -36.5,-288.5 -36.5,-288.5 -30.5,-288.5 -24.5,-294.5 -24.5,-300.5 -24.5,-300.5 -24.5,-369.5 -24.5,-369.5 -24.5,-375.5 -30.5,-381.5 -36.5,-381.5 -36.5,-381.5 -115.5,-381.5 -115.5,-381.5 -121.5,-381.5 -127.5,-375.5 -127.5,-369.5 -127.5,-369.5 -127.5,-300.5 -127.5,-300.5 -127.5,-294.5 -121.5,-288.5 -115.5,-288.5"/>
<text text-anchor="middle" x="-76" y="-366.3" font-family="Times,serif" font-size="14.00">UsersController</text>
<polyline fill="none" stroke="black" points="-127.5,-358.5 -24.5,-358.5 "/>
<text text-anchor="start" x="-119.5" y="-343.3" font-family="Times,serif" font-size="14.00">index</text>
<polyline fill="none" stroke="black" points="-127.5,-335.5 -24.5,-335.5 "/>
<polyline fill="none" stroke="black" points="-127.5,-311.5 -24.5,-311.5 "/>
<text text-anchor="start" x="-119.5" y="-296.3" font-family="Times,serif" font-size="14.00">_layout</text>
</g>
<!-- Users::ConfirmationsController -->
<g id="node4" class="node"><title>Users::ConfirmationsController</title>
<path fill="none" stroke="black" d="M-147.5,-161C-147.5,-161 17.5,-161 17.5,-161 23.5,-161 29.5,-167 29.5,-173 29.5,-173 29.5,-243 29.5,-243 29.5,-249 23.5,-255 17.5,-255 17.5,-255 -147.5,-255 -147.5,-255 -153.5,-255 -159.5,-249 -159.5,-243 -159.5,-243 -159.5,-173 -159.5,-173 -159.5,-167 -153.5,-161 -147.5,-161"/>
<text text-anchor="middle" x="-65" y="-239.8" font-family="Times,serif" font-size="14.00">Users::ConfirmationsController</text>
<polyline fill="none" stroke="black" points="-159.5,-232 29.5,-232 "/>
<polyline fill="none" stroke="black" points="-159.5,-208 29.5,-208 "/>
<polyline fill="none" stroke="black" points="-159.5,-184 29.5,-184 "/>
<text text-anchor="start" x="-151.5" y="-168.8" font-family="Times,serif" font-size="14.00">_layout</text>
</g>
<!-- Users::RegistrationsController -->
<g id="node5" class="node"><title>Users::RegistrationsController</title>
<path fill="none" stroke="black" d="M220,63.5C220,63.5 378,63.5 378,63.5 384,63.5 390,57.5 390,51.5 390,51.5 390,-17.5 390,-17.5 390,-23.5 384,-29.5 378,-29.5 378,-29.5 220,-29.5 220,-29.5 214,-29.5 208,-23.5 208,-17.5 208,-17.5 208,51.5 208,51.5 208,57.5 214,63.5 220,63.5"/>
<text text-anchor="middle" x="299" y="-14.3" font-family="Times,serif" font-size="14.00">Users::RegistrationsController</text>
<polyline fill="none" stroke="black" points="208,-6.5 390,-6.5 "/>
<text text-anchor="start" x="216" y="8.7" font-family="Times,serif" font-size="14.00">configure_sign_up_params</text>
<polyline fill="none" stroke="black" points="208,16.5 390,16.5 "/>
<polyline fill="none" stroke="black" points="208,40.5 390,40.5 "/>
<text text-anchor="start" x="216" y="55.7" font-family="Times,serif" font-size="14.00">_layout</text>
</g>
<!-- Users::UnlocksController -->
<g id="node6" class="node"><title>Users::UnlocksController</title>
<path fill="none" stroke="black" d="M-243.5,-33C-243.5,-33 -112.5,-33 -112.5,-33 -106.5,-33 -100.5,-39 -100.5,-45 -100.5,-45 -100.5,-115 -100.5,-115 -100.5,-121 -106.5,-127 -112.5,-127 -112.5,-127 -243.5,-127 -243.5,-127 -249.5,-127 -255.5,-121 -255.5,-115 -255.5,-115 -255.5,-45 -255.5,-45 -255.5,-39 -249.5,-33 -243.5,-33"/>
<text text-anchor="middle" x="-178" y="-111.8" font-family="Times,serif" font-size="14.00">Users::UnlocksController</text>
<polyline fill="none" stroke="black" points="-255.5,-104 -100.5,-104 "/>
<polyline fill="none" stroke="black" points="-255.5,-80 -100.5,-80 "/>
<polyline fill="none" stroke="black" points="-255.5,-56 -100.5,-56 "/>
<text text-anchor="start" x="-247.5" y="-40.8" font-family="Times,serif" font-size="14.00">_layout</text>
</g>
<!-- Users::PasswordsController -->
<g id="node7" class="node"><title>Users::PasswordsController</title>
<path fill="none" stroke="black" d="M-228.5,239C-228.5,239 -85.5,239 -85.5,239 -79.5,239 -73.5,233 -73.5,227 -73.5,227 -73.5,157 -73.5,157 -73.5,151 -79.5,145 -85.5,145 -85.5,145 -228.5,145 -228.5,145 -234.5,145 -240.5,151 -240.5,157 -240.5,157 -240.5,227 -240.5,227 -240.5,233 -234.5,239 -228.5,239"/>
<text text-anchor="middle" x="-157" y="160.2" font-family="Times,serif" font-size="14.00">Users::PasswordsController</text>
<polyline fill="none" stroke="black" points="-240.5,168 -73.5,168 "/>
<polyline fill="none" stroke="black" points="-240.5,192 -73.5,192 "/>
<polyline fill="none" stroke="black" points="-240.5,216 -73.5,216 "/>
<text text-anchor="start" x="-232.5" y="231.2" font-family="Times,serif" font-size="14.00">_layout</text>
</g>
<!-- Users::OmniauthCallbacksController -->
<g id="node8" class="node"><title>Users::OmniauthCallbacksController</title>
<path fill="none" stroke="black" d="M188,-177C188,-177 382,-177 382,-177 388,-177 394,-183 394,-189 394,-189 394,-259 394,-259 394,-265 388,-271 382,-271 382,-271 188,-271 188,-271 182,-271 176,-265 176,-259 176,-259 176,-189 176,-189 176,-183 182,-177 188,-177"/>
<text text-anchor="middle" x="285" y="-255.8" font-family="Times,serif" font-size="14.00">Users::OmniauthCallbacksController</text>
<polyline fill="none" stroke="black" points="176,-248 394,-248 "/>
<polyline fill="none" stroke="black" points="176,-224 394,-224 "/>
<polyline fill="none" stroke="black" points="176,-200 394,-200 "/>
<text text-anchor="start" x="184" y="-184.8" font-family="Times,serif" font-size="14.00">_layout</text>
</g>
<!-- Users::SessionsController -->
<g id="node9" class="node"><title>Users::SessionsController</title>
<path fill="none" stroke="black" d="M-243.5,95C-243.5,95 -110.5,95 -110.5,95 -104.5,95 -98.5,89 -98.5,83 -98.5,83 -98.5,13 -98.5,13 -98.5,7 -104.5,1 -110.5,1 -110.5,1 -243.5,1 -243.5,1 -249.5,1 -255.5,7 -255.5,13 -255.5,13 -255.5,83 -255.5,83 -255.5,89 -249.5,95 -243.5,95"/>
<text text-anchor="middle" x="-177" y="16.2" font-family="Times,serif" font-size="14.00">Users::SessionsController</text>
<polyline fill="none" stroke="black" points="-255.5,24 -98.5,24 "/>
<polyline fill="none" stroke="black" points="-255.5,48 -98.5,48 "/>
<polyline fill="none" stroke="black" points="-255.5,72 -98.5,72 "/>
<text text-anchor="start" x="-247.5" y="87.2" font-family="Times,serif" font-size="14.00">_layout</text>
</g>
<!-- BoardsController -->
<g id="node10" class="node"><title>BoardsController</title>
<path fill="none" stroke="black" d="M76,63.5C76,63.5 162,63.5 162,63.5 168,63.5 174,57.5 174,51.5 174,51.5 174,-137.5 174,-137.5 174,-143.5 168,-149.5 162,-149.5 162,-149.5 76,-149.5 76,-149.5 70,-149.5 64,-143.5 64,-137.5 64,-137.5 64,51.5 64,51.5 64,57.5 70,63.5 76,63.5"/>
<text text-anchor="middle" x="119" y="-134.3" font-family="Times,serif" font-size="14.00">BoardsController</text>
<polyline fill="none" stroke="black" points="64,-126.5 174,-126.5 "/>
<text text-anchor="start" x="72" y="-111.3" font-family="Times,serif" font-size="14.00">create</text>
<text text-anchor="start" x="72" y="-96.3" font-family="Times,serif" font-size="14.00">destroy</text>
<text text-anchor="start" x="72" y="-81.3" font-family="Times,serif" font-size="14.00">edit</text>
<text text-anchor="start" x="72" y="-66.3" font-family="Times,serif" font-size="14.00">index</text>
<text text-anchor="start" x="72" y="-51.3" font-family="Times,serif" font-size="14.00">new</text>
<text text-anchor="start" x="72" y="-36.3" font-family="Times,serif" font-size="14.00">show</text>
<text text-anchor="start" x="72" y="-21.3" font-family="Times,serif" font-size="14.00">update</text>
<polyline fill="none" stroke="black" points="64,-13.5 174,-13.5 "/>
<polyline fill="none" stroke="black" points="64,10.5 174,10.5 "/>
<text text-anchor="start" x="72" y="25.7" font-family="Times,serif" font-size="14.00">_layout</text>
<text text-anchor="start" x="72" y="40.7" font-family="Times,serif" font-size="14.00">board_params</text>
<text text-anchor="start" x="72" y="55.7" font-family="Times,serif" font-size="14.00">set_board</text>
</g>
<!-- ApplicationController -->
<g id="node11" class="node"><title>ApplicationController</title>
<path fill="none" stroke="black" d="M12,-289C12,-289 124,-289 124,-289 130,-289 136,-295 136,-301 136,-301 136,-371 136,-371 136,-377 130,-383 124,-383 124,-383 12,-383 12,-383 6,-383 0,-377 0,-371 0,-371 0,-301 0,-301 0,-295 6,-289 12,-289"/>
<text text-anchor="middle" x="68" y="-367.8" font-family="Times,serif" font-size="14.00">ApplicationController</text>
<polyline fill="none" stroke="black" points="0,-360 136,-360 "/>
<polyline fill="none" stroke="black" points="0,-336 136,-336 "/>
<polyline fill="none" stroke="black" points="0,-312 136,-312 "/>
<text text-anchor="start" x="8" y="-296.8" font-family="Times,serif" font-size="14.00">_layout</text>
</g>
</g>
</svg>
