<?xml version="1.0" encoding="UTF-8" standalone="no"?>
<!DOCTYPE svg PUBLIC "-//W3C//DTD SVG 1.1//EN"
 "http://www.w3.org/Graphics/SVG/1.1/DTD/svg11.dtd">
<!-- Generated by graphviz version 2.38.0 (20140413.2041)
 -->
<!-- Title: models_diagram Pages: 1 -->
<svg width="511pt" height="374pt"
 viewBox="0.00 0.00 511.05 374.00" xmlns="http://www.w3.org/2000/svg" xmlns:xlink="http://www.w3.org/1999/xlink">
<g id="graph0" class="graph" transform="scale(1 1) rotate(0) translate(4 370)">
<title>models_diagram</title>
<polygon fill="none" stroke="none" points="-4,4 -4,-370 507.046,-370 507.046,4 -4,4"/>
<!-- _diagram_info -->
<g id="node1" class="node"><title>_diagram_info</title>
<text text-anchor="start" x="8" y="-351.6" font-family="Times,serif" font-size="13.00">Models diagram</text>
<text text-anchor="start" x="8" y="-337.6" font-family="Times,serif" font-size="13.00">Date: Aug 10 2016 &#45; 21:42</text>
<text text-anchor="start" x="8" y="-323.6" font-family="Times,serif" font-size="13.00">Migration version: 20160811014216</text>
<text text-anchor="start" x="8" y="-309.6" font-family="Times,serif" font-size="13.00">Generated by RailRoady 1.5.1</text>
<text text-anchor="start" x="8" y="-295.6" font-family="Times,serif" font-size="13.00">http://railroady.prestonlee.com</text>
</g>
<!-- Country -->
<g id="node2" class="node"><title>Country</title>
<ellipse fill="none" stroke="black" cx="272" cy="-327" rx="39.7935" ry="18"/>
<text text-anchor="middle" x="272" y="-323.3" font-family="Times,serif" font-size="14.00">Country</text>
</g>
<!-- City -->
<g id="node3" class="node"><title>City</title>
<ellipse fill="none" stroke="black" cx="272" cy="-234" rx="27" ry="18"/>
<text text-anchor="middle" x="272" y="-230.3" font-family="Times,serif" font-size="14.00">City</text>
</g>
<!-- Country&#45;&gt;City -->
<g id="edge1" class="edge"><title>Country&#45;&gt;City</title>
<path fill="none" stroke="#fc3596" d="M272,-300.729C272,-288.725 272,-274.362 272,-262.129"/>
<ellipse fill="none" stroke="#fc3596" cx="272" cy="-304.884" rx="4" ry="4"/>
<polygon fill="#fc3596" stroke="#fc3596" points="272,-262.04 276.5,-252.04 272,-257.04 272,-252.04 272,-252.04 272,-252.04 272,-257.04 267.5,-252.04 272,-262.04 272,-262.04"/>
</g>
<!-- Board -->
<g id="node8" class="node"><title>Board</title>
<ellipse fill="none" stroke="black" cx="272" cy="-162" rx="32.4942" ry="18"/>
<text text-anchor="middle" x="272" y="-158.3" font-family="Times,serif" font-size="14.00">Board</text>
</g>
<!-- City&#45;&gt;Board -->
<g id="edge2" class="edge"><title>City&#45;&gt;Board</title>
<path fill="none" stroke="#97dc6a" d="M272,-207.64C272,-202.063 272,-196.132 272,-190.476"/>
<ellipse fill="none" stroke="#97dc6a" cx="272" cy="-211.697" rx="4" ry="4"/>
<polygon fill="#97dc6a" stroke="#97dc6a" points="272,-190.104 276.5,-180.104 272,-185.104 272,-180.104 272,-180.104 272,-180.104 272,-185.104 267.5,-180.104 272,-190.104 272,-190.104"/>
</g>
<!-- Post -->
<g id="node4" class="node"><title>Post</title>
<ellipse fill="none" stroke="black" cx="381" cy="-90" rx="27" ry="18"/>
<text text-anchor="middle" x="381" y="-86.3" font-family="Times,serif" font-size="14.00">Post</text>
</g>
<!-- Comment -->
<g id="node5" class="node"><title>Comment</title>
<ellipse fill="none" stroke="black" cx="412" cy="-18" rx="46.2923" ry="18"/>
<text text-anchor="middle" x="412" y="-14.3" font-family="Times,serif" font-size="14.00">Comment</text>
</g>
<!-- Post&#45;&gt;Comment -->
<g id="edge3" class="edge"><title>Post&#45;&gt;Comment</title>
<path fill="none" stroke="#b0e300" d="M391.601,-65.0625C394.448,-58.6325 397.542,-51.6473 400.439,-45.106"/>
<ellipse fill="none" stroke="#b0e300" cx="389.966" cy="-68.7536" rx="4.00002" ry="4.00002"/>
<polygon fill="#b0e300" stroke="#b0e300" points="400.442,-45.0997 408.605,-37.7784 402.466,-40.528 404.491,-35.9562 404.491,-35.9562 404.491,-35.9562 402.466,-40.528 400.376,-34.134 400.442,-45.0997 400.442,-45.0997"/>
</g>
<!-- Nationality -->
<g id="node6" class="node"><title>Nationality</title>
<ellipse fill="none" stroke="black" cx="453" cy="-234" rx="50.0912" ry="18"/>
<text text-anchor="middle" x="453" y="-230.3" font-family="Times,serif" font-size="14.00">Nationality</text>
</g>
<!-- User -->
<g id="node7" class="node"><title>User</title>
<ellipse fill="none" stroke="black" cx="453" cy="-162" rx="27.0966" ry="18"/>
<text text-anchor="middle" x="453" y="-158.3" font-family="Times,serif" font-size="14.00">User</text>
</g>
<!-- Nationality&#45;&gt;User -->
<g id="edge4" class="edge"><title>Nationality&#45;&gt;User</title>
<path fill="none" stroke="#ebd3a5" d="M453,-207.64C453,-202.063 453,-196.132 453,-190.476"/>
<ellipse fill="none" stroke="#ebd3a5" cx="453" cy="-211.697" rx="4" ry="4"/>
<polygon fill="#ebd3a5" stroke="#ebd3a5" points="453,-190.104 457.5,-180.104 453,-185.104 453,-180.104 453,-180.104 453,-180.104 453,-185.104 448.5,-180.104 453,-190.104 453,-190.104"/>
</g>
<!-- User&#45;&gt;Post -->
<g id="edge5" class="edge"><title>User&#45;&gt;Post</title>
<path fill="none" stroke="#53cb5e" d="M432.274,-140.85C423.193,-132.021 412.519,-121.644 403.269,-112.65"/>
<ellipse fill="none" stroke="#53cb5e" cx="435.214" cy="-143.708" rx="4.00002" ry="4.00002"/>
<polygon fill="#53cb5e" stroke="#53cb5e" points="403.069,-112.456 399.036,-102.259 399.484,-108.971 395.899,-105.485 395.899,-105.485 395.899,-105.485 399.484,-108.971 392.762,-108.712 403.069,-112.456 403.069,-112.456"/>
</g>
<!-- User&#45;&gt;Comment -->
<g id="edge6" class="edge"><title>User&#45;&gt;Comment</title>
<path fill="none" stroke="#695b18" d="M445.849,-136.233C438.585,-111.076 427.366,-72.218 419.858,-46.2145"/>
<ellipse fill="none" stroke="#695b18" cx="447.026" cy="-140.31" rx="4.00001" ry="4.00001"/>
<polygon fill="#695b18" stroke="#695b18" points="419.76,-45.8754 421.309,-35.0195 418.373,-41.0716 416.986,-36.2678 416.986,-36.2678 416.986,-36.2678 418.373,-41.0716 412.662,-37.5161 419.76,-45.8754 419.76,-45.8754"/>
</g>
<!-- Board&#45;&gt;Post -->
<g id="edge7" class="edge"><title>Board&#45;&gt;Post</title>
<path fill="none" stroke="#c3032f" d="M299.395,-143.407C315.891,-132.813 336.832,-119.365 353.37,-108.744"/>
<ellipse fill="none" stroke="#c3032f" cx="295.868" cy="-145.672" rx="4.00002" ry="4.00002"/>
<polygon fill="#c3032f" stroke="#c3032f" points="353.634,-108.574 364.48,-106.957 357.842,-105.872 362.049,-103.171 362.049,-103.171 362.049,-103.171 357.842,-105.872 359.617,-99.3841 353.634,-108.574 353.634,-108.574"/>
</g>
<!-- Category -->
<g id="node9" class="node"><title>Category</title>
<ellipse fill="none" stroke="black" cx="365" cy="-162" rx="42.7926" ry="18"/>
<text text-anchor="middle" x="365" y="-158.3" font-family="Times,serif" font-size="14.00">Category</text>
</g>
<!-- Category&#45;&gt;Post -->
<g id="edge8" class="edge"><title>Category&#45;&gt;Post</title>
<path fill="none" stroke="#de7f37" d="M370.717,-135.987C372.029,-130.249 373.429,-124.121 374.762,-118.293"/>
<ellipse fill="none" stroke="#de7f37" cx="369.764" cy="-140.156" rx="4.00001" ry="4.00001"/>
<polygon fill="#de7f37" stroke="#de7f37" points="374.823,-118.024 381.438,-109.278 375.937,-113.15 377.051,-108.275 377.051,-108.275 377.051,-108.275 375.937,-113.15 372.664,-107.273 374.823,-118.024 374.823,-118.024"/>
</g>
</g>
</svg>
