<?xml version="1.0" encoding="UTF-8" standalone="no"?>
<!DOCTYPE svg PUBLIC "-//W3C//DTD SVG 1.1//EN"
 "http://www.w3.org/Graphics/SVG/1.1/DTD/svg11.dtd">
<!-- Generated by graphviz version 2.38.0 (20140413.2041)
 -->
<!-- Title: models_diagram Pages: 1 -->
<svg width="1078pt" height="897pt"
 viewBox="0.00 0.00 1077.50 897.00" xmlns="http://www.w3.org/2000/svg" xmlns:xlink="http://www.w3.org/1999/xlink">
<g id="graph0" class="graph" transform="scale(1 1) rotate(0) translate(4 893)">
<title>models_diagram</title>
<polygon fill="none" stroke="none" points="-4,4 -4,-893 1073.5,-893 1073.5,4 -4,4"/>
<!-- _diagram_info -->
<g id="node1" class="node"><title>_diagram_info</title>
<text text-anchor="start" x="8" y="-867.6" font-family="Times,serif" font-size="13.00">Models diagram</text>
<text text-anchor="start" x="8" y="-853.6" font-family="Times,serif" font-size="13.00">Date: Aug 10 2016 &#45; 21:42</text>
<text text-anchor="start" x="8" y="-839.6" font-family="Times,serif" font-size="13.00">Migration version: 20160811014216</text>
<text text-anchor="start" x="8" y="-825.6" font-family="Times,serif" font-size="13.00">Generated by RailRoady 1.5.1</text>
<text text-anchor="start" x="8" y="-811.6" font-family="Times,serif" font-size="13.00">http://railroady.prestonlee.com</text>
</g>
<!-- Country -->
<g id="node2" class="node"><title>Country</title>
<path fill="none" stroke="black" d="M244,-797.5C244,-797.5 464,-797.5 464,-797.5 470,-797.5 476,-803.5 476,-809.5 476,-809.5 476,-876.5 476,-876.5 476,-882.5 470,-888.5 464,-888.5 464,-888.5 244,-888.5 244,-888.5 238,-888.5 232,-882.5 232,-876.5 232,-876.5 232,-809.5 232,-809.5 232,-803.5 238,-797.5 244,-797.5"/>
<text text-anchor="middle" x="354" y="-873.3" font-family="Times,serif" font-size="14.00">Country</text>
<polyline fill="none" stroke="black" points="232,-865.5 476,-865.5 "/>
<text text-anchor="start" x="240" y="-850.3" font-family="Times,serif" font-size="14.00">id :integer</text>
<text text-anchor="start" x="240" y="-835.3" font-family="Times,serif" font-size="14.00">name :character varying</text>
<text text-anchor="start" x="240" y="-820.3" font-family="Times,serif" font-size="14.00">created_at :timestamp without time zone</text>
<text text-anchor="start" x="240" y="-805.3" font-family="Times,serif" font-size="14.00">updated_at :timestamp without time zone</text>
</g>
<!-- City -->
<g id="node3" class="node"><title>City</title>
<path fill="none" stroke="black" d="M244,-654.5C244,-654.5 464,-654.5 464,-654.5 470,-654.5 476,-660.5 476,-666.5 476,-666.5 476,-748.5 476,-748.5 476,-754.5 470,-760.5 464,-760.5 464,-760.5 244,-760.5 244,-760.5 238,-760.5 232,-754.5 232,-748.5 232,-748.5 232,-666.5 232,-666.5 232,-660.5 238,-654.5 244,-654.5"/>
<text text-anchor="middle" x="354" y="-745.3" font-family="Times,serif" font-size="14.00">City</text>
<polyline fill="none" stroke="black" points="232,-737.5 476,-737.5 "/>
<text text-anchor="start" x="240" y="-722.3" font-family="Times,serif" font-size="14.00">id :integer</text>
<text text-anchor="start" x="240" y="-707.3" font-family="Times,serif" font-size="14.00">country_id :integer</text>
<text text-anchor="start" x="240" y="-692.3" font-family="Times,serif" font-size="14.00">created_at :timestamp without time zone</text>
<text text-anchor="start" x="240" y="-677.3" font-family="Times,serif" font-size="14.00">updated_at :timestamp without time zone</text>
<text text-anchor="start" x="240" y="-662.3" font-family="Times,serif" font-size="14.00">name :character varying</text>
</g>
<!-- Country&#45;&gt;City -->
<g id="edge1" class="edge"><title>Country&#45;&gt;City</title>
<path fill="none" stroke="#d08788" d="M354,-789.111C354,-783.148 354,-777.03 354,-770.96"/>
<ellipse fill="none" stroke="#d08788" cx="354" cy="-793.175" rx="4" ry="4"/>
<polygon fill="#d08788" stroke="#d08788" points="354,-770.824 358.5,-760.824 354,-765.824 354,-760.824 354,-760.824 354,-760.824 354,-765.824 349.5,-760.824 354,-770.824 354,-770.824"/>
</g>
<!-- Board -->
<g id="node8" class="node"><title>Board</title>
<path fill="none" stroke="black" d="M244,-429C244,-429 464,-429 464,-429 470,-429 476,-435 476,-441 476,-441 476,-538 476,-538 476,-544 470,-550 464,-550 464,-550 244,-550 244,-550 238,-550 232,-544 232,-538 232,-538 232,-441 232,-441 232,-435 238,-429 244,-429"/>
<text text-anchor="middle" x="354" y="-534.8" font-family="Times,serif" font-size="14.00">Board</text>
<polyline fill="none" stroke="black" points="232,-527 476,-527 "/>
<text text-anchor="start" x="240" y="-511.8" font-family="Times,serif" font-size="14.00">id :integer</text>
<text text-anchor="start" x="240" y="-496.8" font-family="Times,serif" font-size="14.00">names :character varying</text>
<text text-anchor="start" x="240" y="-481.8" font-family="Times,serif" font-size="14.00">created_at :timestamp without time zone</text>
<text text-anchor="start" x="240" y="-466.8" font-family="Times,serif" font-size="14.00">updated_at :timestamp without time zone</text>
<text text-anchor="start" x="240" y="-451.8" font-family="Times,serif" font-size="14.00">city_id :integer</text>
<text text-anchor="start" x="240" y="-436.8" font-family="Times,serif" font-size="14.00">post_id :integer</text>
</g>
<!-- City&#45;&gt;Board -->
<g id="edge2" class="edge"><title>City&#45;&gt;Board</title>
<path fill="none" stroke="#4a59c1" d="M354,-646.194C354,-619.456 354,-587.839 354,-560.105"/>
<ellipse fill="none" stroke="#4a59c1" cx="354" cy="-650.488" rx="4" ry="4"/>
<polygon fill="#4a59c1" stroke="#4a59c1" points="354,-560.079 358.5,-550.079 354,-555.079 354,-550.079 354,-550.079 354,-550.079 354,-555.079 349.5,-550.079 354,-560.079 354,-560.079"/>
</g>
<!-- Post -->
<g id="node4" class="node"><title>Post</title>
<path fill="none" stroke="black" d="M579,-158.5C579,-158.5 799,-158.5 799,-158.5 805,-158.5 811,-164.5 811,-170.5 811,-170.5 811,-312.5 811,-312.5 811,-318.5 805,-324.5 799,-324.5 799,-324.5 579,-324.5 579,-324.5 573,-324.5 567,-318.5 567,-312.5 567,-312.5 567,-170.5 567,-170.5 567,-164.5 573,-158.5 579,-158.5"/>
<text text-anchor="middle" x="689" y="-309.3" font-family="Times,serif" font-size="14.00">Post</text>
<polyline fill="none" stroke="black" points="567,-301.5 811,-301.5 "/>
<text text-anchor="start" x="575" y="-286.3" font-family="Times,serif" font-size="14.00">id :integer</text>
<text text-anchor="start" x="575" y="-271.3" font-family="Times,serif" font-size="14.00">title :character varying</text>
<text text-anchor="start" x="575" y="-256.3" font-family="Times,serif" font-size="14.00">content :text</text>
<text text-anchor="start" x="575" y="-241.3" font-family="Times,serif" font-size="14.00">date :date</text>
<text text-anchor="start" x="575" y="-226.3" font-family="Times,serif" font-size="14.00">category_id :integer</text>
<text text-anchor="start" x="575" y="-211.3" font-family="Times,serif" font-size="14.00">board_id :integer</text>
<text text-anchor="start" x="575" y="-196.3" font-family="Times,serif" font-size="14.00">created_at :timestamp without time zone</text>
<text text-anchor="start" x="575" y="-181.3" font-family="Times,serif" font-size="14.00">updated_at :timestamp without time zone</text>
<text text-anchor="start" x="575" y="-166.3" font-family="Times,serif" font-size="14.00">user_id :integer</text>
</g>
<!-- Comment -->
<g id="node5" class="node"><title>Comment</title>
<path fill="none" stroke="black" d="M672,-0.5C672,-0.5 892,-0.5 892,-0.5 898,-0.5 904,-6.5 904,-12.5 904,-12.5 904,-109.5 904,-109.5 904,-115.5 898,-121.5 892,-121.5 892,-121.5 672,-121.5 672,-121.5 666,-121.5 660,-115.5 660,-109.5 660,-109.5 660,-12.5 660,-12.5 660,-6.5 666,-0.5 672,-0.5"/>
<text text-anchor="middle" x="782" y="-106.3" font-family="Times,serif" font-size="14.00">Comment</text>
<polyline fill="none" stroke="black" points="660,-98.5 904,-98.5 "/>
<text text-anchor="start" x="668" y="-83.3" font-family="Times,serif" font-size="14.00">id :integer</text>
<text text-anchor="start" x="668" y="-68.3" font-family="Times,serif" font-size="14.00">content :text</text>
<text text-anchor="start" x="668" y="-53.3" font-family="Times,serif" font-size="14.00">post_id :integer</text>
<text text-anchor="start" x="668" y="-38.3" font-family="Times,serif" font-size="14.00">user_id :integer</text>
<text text-anchor="start" x="668" y="-23.3" font-family="Times,serif" font-size="14.00">created_at :timestamp without time zone</text>
<text text-anchor="start" x="668" y="-8.3" font-family="Times,serif" font-size="14.00">updated_at :timestamp without time zone</text>
</g>
<!-- Post&#45;&gt;Comment -->
<g id="edge3" class="edge"><title>Post&#45;&gt;Comment</title>
<path fill="none" stroke="#d5fc2d" d="M735.603,-151.052C739.174,-144.199 742.743,-137.348 746.227,-130.66"/>
<ellipse fill="none" stroke="#d5fc2d" cx="733.673" cy="-154.756" rx="4.00002" ry="4.00002"/>
<polygon fill="#d5fc2d" stroke="#d5fc2d" points="746.298,-130.525 754.909,-123.736 748.608,-126.091 750.918,-121.657 750.918,-121.657 750.918,-121.657 748.608,-126.091 746.928,-119.577 746.298,-130.525 746.298,-130.525"/>
</g>
<!-- Nationality -->
<g id="node6" class="node"><title>Nationality</title>
<path fill="none" stroke="black" d="M803,-654.5C803,-654.5 1023,-654.5 1023,-654.5 1029,-654.5 1035,-660.5 1035,-666.5 1035,-666.5 1035,-748.5 1035,-748.5 1035,-754.5 1029,-760.5 1023,-760.5 1023,-760.5 803,-760.5 803,-760.5 797,-760.5 791,-754.5 791,-748.5 791,-748.5 791,-666.5 791,-666.5 791,-660.5 797,-654.5 803,-654.5"/>
<text text-anchor="middle" x="913" y="-745.3" font-family="Times,serif" font-size="14.00">Nationality</text>
<polyline fill="none" stroke="black" points="791,-737.5 1035,-737.5 "/>
<text text-anchor="start" x="799" y="-722.3" font-family="Times,serif" font-size="14.00">id :integer</text>
<text text-anchor="start" x="799" y="-707.3" font-family="Times,serif" font-size="14.00">name :character varying</text>
<text text-anchor="start" x="799" y="-692.3" font-family="Times,serif" font-size="14.00">gentility :character varying</text>
<text text-anchor="start" x="799" y="-677.3" font-family="Times,serif" font-size="14.00">created_at :timestamp without time zone</text>
<text text-anchor="start" x="799" y="-662.3" font-family="Times,serif" font-size="14.00">updated_at :timestamp without time zone</text>
</g>
<!-- User -->
<g id="node7" class="node"><title>User</title>
<path fill="none" stroke="black" d="M768.5,-361.5C768.5,-361.5 1057.5,-361.5 1057.5,-361.5 1063.5,-361.5 1069.5,-367.5 1069.5,-373.5 1069.5,-373.5 1069.5,-605.5 1069.5,-605.5 1069.5,-611.5 1063.5,-617.5 1057.5,-617.5 1057.5,-617.5 768.5,-617.5 768.5,-617.5 762.5,-617.5 756.5,-611.5 756.5,-605.5 756.5,-605.5 756.5,-373.5 756.5,-373.5 756.5,-367.5 762.5,-361.5 768.5,-361.5"/>
<text text-anchor="middle" x="913" y="-602.3" font-family="Times,serif" font-size="14.00">User</text>
<polyline fill="none" stroke="black" points="756.5,-594.5 1069.5,-594.5 "/>
<text text-anchor="start" x="764.5" y="-579.3" font-family="Times,serif" font-size="14.00">id :integer</text>
<text text-anchor="start" x="764.5" y="-564.3" font-family="Times,serif" font-size="14.00">email :character varying</text>
<text text-anchor="start" x="764.5" y="-549.3" font-family="Times,serif" font-size="14.00">encrypted_password :character varying</text>
<text text-anchor="start" x="764.5" y="-534.3" font-family="Times,serif" font-size="14.00">reset_password_token :character varying</text>
<text text-anchor="start" x="764.5" y="-519.3" font-family="Times,serif" font-size="14.00">reset_password_sent_at :timestamp without time zone</text>
<text text-anchor="start" x="764.5" y="-504.3" font-family="Times,serif" font-size="14.00">remember_created_at :timestamp without time zone</text>
<text text-anchor="start" x="764.5" y="-489.3" font-family="Times,serif" font-size="14.00">sign_in_count :integer</text>
<text text-anchor="start" x="764.5" y="-474.3" font-family="Times,serif" font-size="14.00">current_sign_in_at :timestamp without time zone</text>
<text text-anchor="start" x="764.5" y="-459.3" font-family="Times,serif" font-size="14.00">last_sign_in_at :timestamp without time zone</text>
<text text-anchor="start" x="764.5" y="-444.3" font-family="Times,serif" font-size="14.00">current_sign_in_ip :inet</text>
<text text-anchor="start" x="764.5" y="-429.3" font-family="Times,serif" font-size="14.00">last_sign_in_ip :inet</text>
<text text-anchor="start" x="764.5" y="-414.3" font-family="Times,serif" font-size="14.00">created_at :timestamp without time zone</text>
<text text-anchor="start" x="764.5" y="-399.3" font-family="Times,serif" font-size="14.00">updated_at :timestamp without time zone</text>
<text text-anchor="start" x="764.5" y="-384.3" font-family="Times,serif" font-size="14.00">nationality_id :integer</text>
<text text-anchor="start" x="764.5" y="-369.3" font-family="Times,serif" font-size="14.00">name :character varying</text>
</g>
<!-- Nationality&#45;&gt;User -->
<g id="edge4" class="edge"><title>Nationality&#45;&gt;User</title>
<path fill="none" stroke="#2e3b6c" d="M913,-646.322C913,-640.367 913,-634.168 913,-627.823"/>
<ellipse fill="none" stroke="#2e3b6c" cx="913" cy="-650.488" rx="4" ry="4"/>
<polygon fill="#2e3b6c" stroke="#2e3b6c" points="913,-627.747 917.5,-617.747 913,-622.747 913,-617.747 913,-617.747 913,-617.747 913,-622.747 908.5,-617.747 913,-627.747 913,-627.747"/>
</g>
<!-- User&#45;&gt;Post -->
<g id="edge5" class="edge"><title>User&#45;&gt;Post</title>
<path fill="none" stroke="#a74295" d="M791.5,-355.067C784.424,-347.297 777.4,-339.582 770.54,-332.048"/>
<ellipse fill="none" stroke="#a74295" cx="794.37" cy="-358.219" rx="4.00002" ry="4.00002"/>
<polygon fill="#a74295" stroke="#a74295" points="770.472,-331.974 767.067,-321.55 767.106,-328.277 763.74,-324.58 763.74,-324.58 763.74,-324.58 767.106,-328.277 760.412,-327.61 770.472,-331.974 770.472,-331.974"/>
</g>
<!-- User&#45;&gt;Comment -->
<g id="edge6" class="edge"><title>User&#45;&gt;Comment</title>
<path fill="none" stroke="#4458d8" d="M878.294,-353.192C861.99,-292.992 841.441,-221.507 820,-158 817.021,-149.177 813.686,-139.981 810.263,-130.927"/>
<ellipse fill="none" stroke="#4458d8" cx="879.421" cy="-357.369" rx="4.00001" ry="4.00001"/>
<polygon fill="#4458d8" stroke="#4458d8" points="810.253,-130.903 810.876,-119.954 808.464,-126.234 806.674,-121.565 806.674,-121.565 806.674,-121.565 808.464,-126.234 802.472,-123.176 810.253,-130.903 810.253,-130.903"/>
</g>
<!-- Board&#45;&gt;Post -->
<g id="edge7" class="edge"><title>Board&#45;&gt;Post</title>
<path fill="none" stroke="#e4a4c3" d="M415.122,-422.907C436.25,-401.938 460.734,-379.411 485,-361 507.694,-343.782 533.114,-327.173 558.104,-312.113"/>
<ellipse fill="none" stroke="#e4a4c3" cx="412.084" cy="-425.947" rx="4.00002" ry="4.00002"/>
<polygon fill="#e4a4c3" stroke="#e4a4c3" points="558.333,-311.977 569.226,-310.717 562.627,-309.414 566.92,-306.852 566.92,-306.852 566.92,-306.852 562.627,-309.414 564.614,-302.988 558.333,-311.977 558.333,-311.977"/>
</g>
<!-- Category -->
<g id="node9" class="node"><title>Category</title>
<path fill="none" stroke="black" d="M506,-444C506,-444 726,-444 726,-444 732,-444 738,-450 738,-456 738,-456 738,-523 738,-523 738,-529 732,-535 726,-535 726,-535 506,-535 506,-535 500,-535 494,-529 494,-523 494,-523 494,-456 494,-456 494,-450 500,-444 506,-444"/>
<text text-anchor="middle" x="616" y="-519.8" font-family="Times,serif" font-size="14.00">Category</text>
<polyline fill="none" stroke="black" points="494,-512 738,-512 "/>
<text text-anchor="start" x="502" y="-496.8" font-family="Times,serif" font-size="14.00">id :integer</text>
<text text-anchor="start" x="502" y="-481.8" font-family="Times,serif" font-size="14.00">name :character varying</text>
<text text-anchor="start" x="502" y="-466.8" font-family="Times,serif" font-size="14.00">created_at :timestamp without time zone</text>
<text text-anchor="start" x="502" y="-451.8" font-family="Times,serif" font-size="14.00">updated_at :timestamp without time zone</text>
</g>
<!-- Category&#45;&gt;Post -->
<g id="edge8" class="edge"><title>Category&#45;&gt;Post</title>
<path fill="none" stroke="#a1f160" d="M631.599,-435.932C640.353,-406.432 651.527,-368.779 661.685,-334.547"/>
<ellipse fill="none" stroke="#a1f160" cx="630.358" cy="-440.117" rx="4.00001" ry="4.00001"/>
<polygon fill="#a1f160" stroke="#a1f160" points="661.815,-334.108 668.974,-325.802 663.238,-329.315 664.66,-324.521 664.66,-324.521 664.66,-324.521 663.238,-329.315 660.346,-323.241 661.815,-334.108 661.815,-334.108"/>
</g>
</g>
</svg>
